<?xml version="1.0" encoding="UTF-8" standalone="no"?>
<svg width="120px" height="120px" viewBox="0 0 120 120" version="1.1" xmlns="http://www.w3.org/2000/svg" xmlns:xlink="http://www.w3.org/1999/xlink">
    <!-- Generator: Sketch 39.1 (31720) - http://www.bohemiancoding.com/sketch -->
    <title>SBI-logo Copy</title>
    <desc>Created with Sketch.</desc>
    <defs>
        <radialGradient cx="50.4792882%" cy="33.8928623%" fx="50.4792882%" fy="33.8928623%" r="41.8519937%" id="radialGradient-1">
            <stop stop-color="#EDA4A9" offset="0%"></stop>
            <stop stop-color="#ED1E5E" offset="100%"></stop>
        </radialGradient>
    </defs>
    <g id="Symbols" stroke="none" stroke-width="1" fill="none" fill-rule="evenodd">
        <g id="SBI-logo-Copy">
            <g id="SBI-logo" transform="translate(5.000000, 7.000000)">
                <rect id="Rectangle-path" fill="#FFFFFF" x="0" y="9.99105145" width="110" height="89.5749441"></rect>
                <rect id="Rectangle-path" fill="#1A8DA8" x="11" y="19.6375839" width="88" height="70.2818792"></rect>
                <rect id="Rectangle-path" fill="#534741" x="11" y="19.6375839" width="88" height="70.2818792"></rect>
                <rect id="Rectangle-path" fill="#009245" x="11" y="49.9552573" width="24.75" height="27.5615213"></rect>
                <path d="M99,43.064877 L99,34.7964206 L53.625,34.7964206 C49.0686508,34.7964206 45.375,38.4983346 45.375,43.064877 L45.375,43.064877 L45.375,89.9194631 L74.25,89.9194631 C78.8063492,89.9194631 82.5,86.2175491 82.5,81.6510067 L82.5,66.49217 L82.5,66.49217 C82.5,61.9256277 78.8063492,58.2237136 74.25,58.2237136 L70.125,58.2237136 L70.125,43.064877 L99,43.064877 Z" id="Shape" fill="#FFCE00"></path>
                <path d="M53.625,66.49217 L74.25,66.49217 L74.25,76.3144072 C74.25,79.2617297 71.8660562,81.6510067 68.9253125,81.6510067 L53.625,81.6510067 L53.625,66.49217 L53.625,66.49217 Z" id="Shape" fill="#0071BC"></path>
                <rect id="Rectangle-path" fill="#0071BC" x="53.625" y="43.064877" width="8.25" height="15.1588367"></rect>
                <ellipse id="Oval" fill="#42210B" cx="83.82" cy="51.7536465" rx="6.455625" ry="6.47006711"></ellipse>
                <path d="M101.75,18.3146309 C101.753933,10.5227609 96.7471318,3.61612301 89.3519325,1.21210256 C81.9567333,-1.19191788 73.8582912,1.45448682 69.298205,7.76524926 C64.7381188,14.0760117 64.7555019,22.6130891 69.34125,28.9051454 L83.8234375,53.2385235 L99.34375,27.4374944 L99.2509375,27.4374944 C100.886084,24.676563 101.749321,21.5253039 101.75,18.3146309 L101.75,18.3146309 Z" id="Shape" fill="url(#radialGradient-1)"></path>
                <ellipse id="Oval" fill="#FFFFFF" cx="83.82" cy="18.3146309" rx="6.455625" ry="6.47006711"></ellipse>
                <rect id="Rectangle-path" fill="#FFFFFF" x="81.9671875" y="27.8199105" width="3.705625" height="12.5956152" rx="1.8528125"></rect>
                <rect id="Rectangle-path" fill="#E6E6E6" x="0" y="99.5659955" width="110" height="2.75615213"></rect>
                <path d="M39.875,19.6375839 L39.875,24.8053691 C39.875,25.7567321 39.1054894,26.5279642 38.15625,26.5279642 L19.25,26.5279642 C14.6936508,26.5279642 11,30.2298782 11,34.7964206 L11,49.9552573 C11,54.5217996 14.6936508,58.2237136 19.25,58.2237136 L32.3125,58.2237136 C33.4515873,58.2237136 34.375,59.1491922 34.375,60.2908277 L34.375,71.3154362 C34.375,72.4570718 33.4515873,73.3825503 32.3125,73.3825503 L11,73.3825503 L11,81.6510067 L34.375,81.6510067 C38.9313492,81.6510067 42.625,77.9490927 42.625,73.3825503 L42.625,58.2237136 L42.625,58.2237136 C42.625,53.6571713 38.9313492,49.9552573 34.375,49.9552573 L20.96875,49.9552573 C20.0195106,49.9552573 19.25,49.1840252 19.25,48.2326622 L19.25,36.5190157 C19.25,35.5676527 20.0195106,34.7964206 20.96875,34.7964206 L39.875,34.7964206 C44.4313492,34.7964206 48.125,31.0945066 48.125,26.5279642 L48.125,19.6375839 L39.875,19.6375839 Z" id="Shape" fill="#FFCE00"></path>
            </g>
        </g>
    </g>
</svg>