<?xml version="1.0" encoding="UTF-8" standalone="no"?>
<svg width="42px" height="46px" viewBox="0 0 42 46" version="1.1" xmlns="http://www.w3.org/2000/svg" xmlns:xlink="http://www.w3.org/1999/xlink">
    <!-- Generator: Sketch 39.1 (31720) - http://www.bohemiancoding.com/sketch -->
    <title>Page 1</title>
    <desc>Created with Sketch.</desc>
    <defs></defs>
    <g id="Symbols" stroke="none" stroke-width="1" fill="none" fill-rule="evenodd">
        <g id="SideNav-main" transform="translate(-39.000000, -143.000000)">
            <g id="Page-1" transform="translate(39.000000, 143.000000)">
                <path d="M21,6 C20.447,6 20,5.553 20,5 L20,1 C20,0.447 20.447,0 21,0 C21.553,0 22,0.447 22,1 L22,5 C22,5.553 21.553,6 21,6" id="Fill-1" fill="#E3E3E3"></path>
                <path d="M29,10 L26,10 L26,5 C26,4.447 25.553,4 25,4 L17,4 C16.447,4 16,4.447 16,5 L16,10 L13,10 C12.447,10 12,10.447 12,11 L12,45 C12,45.553 12.447,46 13,46 L29,46 C29.553,46 30,45.553 30,45 L30,11 C30,10.447 29.553,10 29,10" id="Fill-3" fill="#E6E6E6"></path>
                <path d="M17,26 L1,26 C0.447,26 0,26.447 0,27 L0,45 C0,45.553 0.447,46 1,46 L17,46 C17.553,46 18,45.553 18,45 L18,27 C18,26.447 17.553,26 17,26" id="Fill-5" fill="#B3B3B3"></path>
                <path d="M41,20 L25,20 C24.447,20 24,20.447 24,21 L24,45 C24,45.553 24.447,46 25,46 L41,46 C41.553,46 42,45.553 42,45 L42,21 C42,20.447 41.553,20 41,20" id="Fill-7" fill="#444444"></path>
                <path d="M34,39 L32,39 C31.448,39 31,39.448 31,40 L31,46 L35,46 L35,40 C35,39.448 34.552,39 34,39" id="Fill-9" fill="#B3B3B3"></path>
                <path d="M10,40 L8,40 C7.448,40 7,40.448 7,41 L7,46 L11,46 L11,41 C11,40.448 10.552,40 10,40" id="Fill-11" fill="#E6E6E6"></path>
                <path d="M31,28 L29,28 C28.448,28 28,27.552 28,27 L28,25 C28,24.448 28.448,24 29,24 L31,24 C31.552,24 32,24.448 32,25 L32,27 C32,27.552 31.552,28 31,28" id="Fill-13" fill="#BADEFC"></path>
                <path d="M37,28 L35,28 C34.448,28 34,27.552 34,27 L34,25 C34,24.448 34.448,24 35,24 L37,24 C37.552,24 38,24.448 38,25 L38,27 C38,27.552 37.552,28 37,28" id="Fill-15" fill="#BADEFC"></path>
                <path d="M31,34 L29,34 C28.448,34 28,33.552 28,33 L28,31 C28,30.448 28.448,30 29,30 L31,30 C31.552,30 32,30.448 32,31 L32,33 C32,33.552 31.552,34 31,34" id="Fill-17" fill="#BADEFC"></path>
                <path d="M37,34 L35,34 C34.448,34 34,33.552 34,33 L34,31 C34,30.448 34.448,30 35,30 L37,30 C37.552,30 38,30.448 38,31 L38,33 C38,33.552 37.552,34 37,34" id="Fill-19" fill="#BADEFC"></path>
                <path d="M7,35 L5,35 C4.448,35 4,34.552 4,34 L4,32 C4,31.448 4.448,31 5,31 L7,31 C7.552,31 8,31.448 8,32 L8,34 C8,34.552 7.552,35 7,35" id="Fill-21" fill="#FFFFFF"></path>
                <path d="M13,35 L11,35 C10.448,35 10,34.552 10,34 L10,32 C10,31.448 10.448,31 11,31 L13,31 C13.552,31 14,31.448 14,32 L14,34 C14,34.552 13.552,35 13,35" id="Fill-23" fill="#FFFFFF"></path>
            </g>
        </g>
    </g>
</svg>