<?xml version="1.0" encoding="UTF-8" standalone="no"?>
<svg width="46px" height="46px" viewBox="0 0 46 46" version="1.1" xmlns="http://www.w3.org/2000/svg" xmlns:xlink="http://www.w3.org/1999/xlink">
    <!-- Generator: Sketch 39.1 (31720) - http://www.bohemiancoding.com/sketch -->
    <title>Page 1</title>
    <desc>Created with Sketch.</desc>
    <defs></defs>
    <g id="Symbols" stroke="none" stroke-width="1" fill="none" fill-rule="evenodd">
        <g id="SideNav-main" transform="translate(-37.000000, -503.000000)">
            <g id="Page-1" transform="translate(37.000000, 503.000000)">
                <path d="M20,2 C29.941,2 38,10.059 38,20 C38,29.941 29.941,38 20,38 C10.059,38 2,29.941 2,20 C2,10.059 10.059,2 20,2" id="Fill-1" fill="#FFFFFF"></path>
                <path d="M20,4 C11.178,4 4,11.178 4,20 C4,28.822 11.178,36 20,36 C28.822,36 36,28.822 36,20 C36,11.178 28.822,4 20,4 M20,40 C8.972,40 0,31.028 0,20 C0,8.972 8.972,0 20,0 C31.028,0 40,8.972 40,20 C40,31.028 31.028,40 20,40" id="Fill-3" fill="#43A6DD"></path>
                <path d="M13,28 C12.744,28 12.488,27.902 12.293,27.707 C11.902,27.316 11.902,26.684 12.293,26.293 L19.293,19.293 C19.684,18.902 20.316,18.902 20.707,19.293 C21.098,19.684 21.098,20.316 20.707,20.707 L13.707,27.707 C13.512,27.902 13.256,28 13,28" id="Fill-5" fill="#E86C60"></path>
                <path d="M20,21 C19.447,21 19,20.552 19,20 L19,10 C19,9.448 19.447,9 20,9 C20.553,9 21,9.448 21,10 L21,20 C21,20.552 20.553,21 20,21" id="Fill-7" fill="#223E49"></path>
                <path d="M30,21 L20,21 C19.447,21 19,20.552 19,20 C19,19.448 19.447,19 20,19 L30,19 C30.553,19 31,19.448 31,20 C31,20.552 30.553,21 30,21" id="Fill-9" fill="#223E49"></path>
                <path d="M20,17 C21.657,17 23,18.343 23,20 C23,21.657 21.657,23 20,23 C18.343,23 17,21.657 17,20 C17,18.343 18.343,17 20,17" id="Fill-11" fill="#223E49"></path>
                <path d="M40,20 C40,17.669 39.578,15.439 38.842,13.357 C37.633,13.122 36.316,13 35,13 C30.527,13 26,14.374 26,17 L26,20 C26,20.357 26.09,20.689 26.246,21 C26.09,21.311 26,21.643 26,22 L26,25 C26,25.357 26.09,25.689 26.246,26 C26.09,26.311 26,26.643 26,27 L26,30 C26,30.357 26.09,30.689 26.246,31 C26.09,31.311 26,31.643 26,32 L26,35 C26,35.357 26.09,35.689 26.246,36 C26.09,36.311 26,36.643 26,37 L26,39 L26.211,39 C34.205,36.38 40,28.859 40,20" id="Fill-13" fill="#000000"></path>
                <path d="M45,38 L29,38 C28.448,38 28,38.448 28,39 L28,42 C28,44.626 32.527,46 37,46 C41.473,46 46,44.626 46,42 L46,39 C46,38.448 45.552,38 45,38" id="Fill-15" fill="#D8BC48"></path>
                <path d="M37,35 C32.527,35 28,36.374 28,39 C28,41.626 32.527,43 37,43 C41.473,43 46,41.626 46,39 C46,36.374 41.473,35 37,35" id="Fill-17" fill="#EFD358"></path>
                <path d="M45,33 L29,33 C28.448,33 28,33.448 28,34 L28,37 C28,39.626 32.527,41 37,41 C41.473,41 46,39.626 46,37 L46,34 C46,33.448 45.552,33 45,33" id="Fill-19" fill="#D8BC48"></path>
                <path d="M37,30 C32.527,30 28,31.374 28,34 C28,36.626 32.527,38 37,38 C41.473,38 46,36.626 46,34 C46,31.374 41.473,30 37,30" id="Fill-21" fill="#EFD358"></path>
                <path d="M45,28 L29,28 C28.448,28 28,28.448 28,29 L28,32 C28,34.626 32.527,36 37,36 C41.473,36 46,34.626 46,32 L46,29 C46,28.448 45.552,28 45,28" id="Fill-23" fill="#D8BC48"></path>
                <path d="M37,25 C32.527,25 28,26.374 28,29 C28,31.626 32.527,33 37,33 C41.473,33 46,31.626 46,29 C46,26.374 41.473,25 37,25" id="Fill-25" fill="#EFD358"></path>
                <path d="M45,23 L29,23 C28.448,23 28,23.448 28,24 L28,27 C28,29.626 32.527,31 37,31 C41.473,31 46,29.626 46,27 L46,24 C46,23.448 45.552,23 45,23" id="Fill-27" fill="#D8BC48"></path>
                <path d="M37,20 C32.527,20 28,21.374 28,24 C28,26.626 32.527,28 37,28 C41.473,28 46,26.626 46,24 C46,21.374 41.473,20 37,20" id="Fill-29" fill="#EFD358"></path>
                <path d="M45,18 L29,18 C28.448,18 28,18.448 28,19 L28,22 C28,24.626 32.527,26 37,26 C41.473,26 46,24.626 46,22 L46,19 C46,18.448 45.552,18 45,18" id="Fill-31" fill="#D8BC48"></path>
                <path d="M37,15 C32.527,15 28,16.374 28,19 C28,21.626 32.527,23 37,23 C41.473,23 46,21.626 46,19 C46,16.374 41.473,15 37,15" id="Fill-33" fill="#EFD358"></path>
            </g>
        </g>
    </g>
</svg>