<?xml version="1.0" encoding="UTF-8" standalone="no"?>
<svg width="42px" height="42px" viewBox="0 0 42 42" version="1.1" xmlns="http://www.w3.org/2000/svg" xmlns:xlink="http://www.w3.org/1999/xlink">
    <!-- Generator: Sketch 39.1 (31720) - http://www.bohemiancoding.com/sketch -->
    <title>Page 1</title>
    <desc>Created with Sketch.</desc>
    <defs></defs>
    <g id="Symbols" stroke="none" stroke-width="1" fill="none" fill-rule="evenodd">
        <g id="SideNav-main" transform="translate(-39.000000, -394.000000)">
            <g id="Page-1" transform="translate(39.000000, 394.000000)">
                <path d="M25,22 L17,22 C16.448,22 16,22.448 16,23 L16,41 C16,41.552 16.448,42 17,42 L25,42 C25.552,42 26,41.552 26,41 L26,23 C26,22.448 25.552,22 25,22" id="Fill-1" fill="#72C472"></path>
                <path d="M9,30 L1,30 C0.448,30 0,30.448 0,31 L0,41 C0,41.552 0.448,42 1,42 L9,42 C9.552,42 10,41.552 10,41 L10,31 C10,30.448 9.552,30 9,30" id="Fill-3" fill="#9EDB9E"></path>
                <path d="M41,14 L33,14 C32.448,14 32,14.448 32,15 L32,41 C32,41.552 32.448,42 33,42 L41,42 C41.552,42 42,41.552 42,41 L42,15 C42,14.448 41.552,14 41,14" id="Fill-5" fill="#4DA34D"></path>
                <path d="M21.707,15.707 L34,3.414 L34,9 C34,9.552 34.448,10 35,10 C35.552,10 36,9.552 36,9 L36,1 C36,0.87 35.973,0.74 35.923,0.618 C35.821,0.373 35.627,0.179 35.382,0.077 C35.26,0.027 35.13,0 35,0 L27,0 C26.448,0 26,0.448 26,1 C26,1.552 26.448,2 27,2 L32.586,2 L21,13.586 L15.707,8.293 C15.316,7.902 14.684,7.902 14.293,8.293 L6.293,16.293 C5.902,16.684 5.902,17.316 6.293,17.707 C6.488,17.902 6.744,18 7,18 C7.256,18 7.512,17.902 7.707,17.707 L15,10.414 L20.293,15.707 C20.684,16.098 21.316,16.098 21.707,15.707" id="Fill-7" fill="#B3B3B3"></path>
            </g>
        </g>
    </g>
</svg>