<?xml version="1.0" encoding="UTF-8" standalone="no"?>
<svg width="47px" height="47px" viewBox="0 0 47 47" version="1.1" xmlns="http://www.w3.org/2000/svg" xmlns:xlink="http://www.w3.org/1999/xlink">
    <!-- Generator: Sketch 39.1 (31720) - http://www.bohemiancoding.com/sketch -->
    <title>Page 1</title>
    <desc>Created with Sketch.</desc>
    <defs></defs>
    <g id="Symbols" stroke="none" stroke-width="1" fill="none" fill-rule="evenodd">
        <g id="SideNav-main" transform="translate(-37.000000, -256.000000)">
            <g id="Page-1" transform="translate(37.000000, 256.000000)">
                <g id="Group-3" transform="translate(31.000000, -0.000300)" fill="#C19F85">
                    <path d="M15.9731,8.7705 C15.8941,8.4325 15.6451,8.1615 15.3161,8.0515 L9.7911,6.2095 L7.9491,0.6835 C7.8391,0.3545 7.5671,0.1065 7.2301,0.0265 C6.8921,-0.0515 6.5371,0.0475 6.2931,0.2925 L0.2931,6.2925 C0.0251,6.5605 -0.0689,6.9565 0.0511,7.3165 L2.0511,13.3165 C2.1421,13.5865 2.4031,13.8545 2.6831,13.9485 L8.6831,15.9485 C8.7871,15.9835 8.8941,15.9995 9.0001,15.9995 C9.2611,15.9995 9.5171,15.8975 9.7071,15.7065 L15.7071,9.7065 C15.9521,9.4615 16.0531,9.1075 15.9731,8.7705" id="Fill-1"></path>
                </g>
                <path d="M19,11.9997 C27.837,11.9997 35,19.1627 35,27.9997 C35,36.8367 27.837,43.9997 19,43.9997 C10.163,43.9997 3,36.8367 3,27.9997 C3,19.1627 10.163,11.9997 19,11.9997" id="Fill-4" fill="#E6E6E6"></path>
                <path d="M19,12.9997 C10.729,12.9997 4,19.7287 4,27.9997 C4,36.2707 10.729,42.9997 19,42.9997 C27.271,42.9997 34,36.2707 34,27.9997 C34,19.7287 27.271,12.9997 19,12.9997 M19,46.9997 C8.523,46.9997 0,38.4767 0,27.9997 C0,17.5227 8.523,8.9997 19,8.9997 C29.477,8.9997 38,17.5227 38,27.9997 C38,38.4767 29.477,46.9997 19,46.9997" id="Fill-6" fill="#E86C60"></path>
                <path d="M19,19.9997 C14.589,19.9997 11,23.5887 11,27.9997 C11,32.4107 14.589,35.9997 19,35.9997 C23.411,35.9997 27,32.4107 27,27.9997 C27,23.5887 23.411,19.9997 19,19.9997 M19,39.9997 C12.383,39.9997 7,34.6167 7,27.9997 C7,21.3827 12.383,15.9997 19,15.9997 C25.617,15.9997 31,21.3827 31,27.9997 C31,34.6167 25.617,39.9997 19,39.9997" id="Fill-8" fill="#E86C60"></path>
                <path d="M19,23.9997 C21.209,23.9997 23,25.7907 23,27.9997 C23,30.2087 21.209,31.9997 19,31.9997 C16.791,31.9997 15,30.2087 15,27.9997 C15,25.7907 16.791,23.9997 19,23.9997" id="Fill-10" fill="#E86C60"></path>
                <path d="M19,28.9997 C18.744,28.9997 18.488,28.9017 18.293,28.7067 C17.902,28.3157 17.902,27.6837 18.293,27.2927 L43.293,2.2927 C43.684,1.9017 44.316,1.9017 44.707,2.2927 C45.098,2.6837 45.098,3.3157 44.707,3.7067 L19.707,28.7067 C19.512,28.9017 19.256,28.9997 19,28.9997" id="Fill-12" fill="#87613E"></path>
            </g>
        </g>
    </g>
</svg>